<svg width="512px" height="512px" viewBox="-16 0 512 512" version="1.1" xmlns="http://www.w3.org/2000/svg">
  <path fill="currentColor" d="M226,480l-178,0c-26.51,0 -48,-21.49 -48,-48l0,-352c0,-26.51 21.49,-48 48,-48l178,0c26.51,0 48,21.49 48,48l0,352c0,26.492 -21.461,47.971 -48,48Zm-66,-64l-48,0c-8.852,0.015 -16,7.172 -16,16c0,8.837 7.163,16 16,16l48,0c8.837,0 16,-7.163 16,-16c0,-8.828 -7.148,-15.985 -16,-16Zm80,-304l-206,0l0,288l206,0l0,-288Zm126.215,14.221c6.628,-11.479 21.306,-15.412 32.785,-8.785c30.198,17.435 52.562,43.227 65.859,72.768c9.605,21.226 14.197,43.665 14.168,65.856c0.012,22.122 -4.568,44.488 -14.129,65.649c-13.292,29.578 -35.67,55.403 -65.898,72.855c-11.479,6.628 -26.157,2.695 -32.785,-8.784c-6.627,-11.479 -2.694,-26.158 8.785,-32.785c17.396,-10.043 31.078,-24.049 40.565,-40.219c0.138,-0.26 0.281,-0.519 0.43,-0.776c1.897,-3.285 3.608,-6.626 5.137,-10.012c6.473,-14.406 9.865,-30.084 9.887,-45.942c-0.009,-15.916 -3.413,-31.651 -9.918,-46.103c-1.521,-3.362 -3.222,-6.68 -5.106,-9.943c-0.148,-0.256 -0.291,-0.514 -0.428,-0.773c-9.487,-16.171 -23.17,-30.178 -40.567,-40.222c-11.479,-6.627 -15.412,-21.305 -8.785,-32.784Zm-15.215,74.353c-11.479,-6.627 -26.157,-2.694 -32.785,8.785c-6.627,11.479 -2.694,26.157 8.785,32.784c2.452,1.416 4.387,3.382 5.74,5.653c0.024,0.042 0.047,0.083 0.071,0.125c0.015,0.026 0.03,0.053 0.046,0.079c0.265,0.46 0.505,0.927 0.72,1.401c0.941,2.083 1.431,4.353 1.426,6.648c-0.009,2.234 -0.487,4.443 -1.392,6.475c-0.224,0.499 -0.475,0.992 -0.755,1.476c-0.04,0.07 -0.08,0.14 -0.119,0.21c-1.353,2.268 -3.287,4.232 -5.737,5.646c-11.479,6.628 -15.412,21.306 -8.785,32.785c6.628,11.479 21.306,15.412 32.785,8.785c12.103,-6.988 21.061,-17.332 26.375,-29.178c3.809,-8.443 5.636,-17.364 5.636,-26.188c0.016,-8.893 -1.822,-17.887 -5.674,-26.392c-5.319,-11.811 -14.263,-22.123 -26.337,-29.094Zm-207,-136.574l-16,0c-8.852,0.015 -16,7.173 -16,16c0,8.837 7.163,16 16,16l16,0c8.837,0 16,-7.163 16,-16c0,-8.827 -7.148,-15.985 -16,-16Z">
  </path>
</svg>