<?xml version="1.0" encoding="utf-8"?><svg version="1.1" id="Layer_1" xmlns="http://www.w3.org/2000/svg" xmlns:xlink="http://www.w3.org/1999/xlink" x="0px" y="0px" viewBox="0 0 71.58 122.88" style="enable-background:new 0 0 71.58 122.88" xml:space="preserve"><style type="text/css">.st0{fill-rule:evenodd;clip-rule:evenodd;}</style><g><path class="st0" d="M12.72,0h46.13c3.5,0,6.71,1.44,9,3.73c2.32,2.32,3.72,5.49,3.72,9v97.43c0,3.5-1.44,6.71-3.72,9 c-2.32,2.32-5.49,3.73-9,3.73H12.72c-3.5,0-6.71-1.44-9-3.73c-2.32-2.32-3.72-5.49-3.72-9l0-97.43c0-3.5,1.44-6.71,3.73-9 C6.05,1.4,9.22,0,12.72,0L12.72,0z M42.91,75.58h0.17c1.29,0,2.36,1.07,2.36,2.36v15.15h1.53v-6.35c0-1.2,0.99-2.19,2.19-2.19h0.17 c1.29,0,2.36,1.07,2.36,2.36v6.34l0.08-0.03h1.65v-4.82c0-1.2,0.99-2.19,2.19-2.19h0.16c1.29,0,2.36,1.07,2.36,2.36v4.41h0.01 l1.64-0.02v-3.12c0-1.2,0.99-2.19,2.19-2.19h0.17c1.29,0,2.36,1.07,2.36,2.36v6.61c0,0.07,0,0.16-0.02,0.24l0.08,0.06 c0.07,1.9,0.04,4.17-0.31,6.36h3.7V19.73H3.61v83.53h35.46L31.33,91c-0.48-1.13-0.42-1.89,0.06-2.39c2.07-1.35,5.47,1.52,9.22,5.57 l0.14-0.03V77.74c0-1.2,0.99-2.19,2.19-2.19L42.91,75.58L42.91,75.58z M44.33,69.25c0,0.65-0.53,1.16-1.16,1.16 c-0.65,0-1.16-0.53-1.16-1.16v-4.67c0-0.65,0.53-1.16,1.16-1.16c0.65,0,1.16,0.53,1.16,1.16V69.25L44.33,69.25L44.33,69.25z M33.79,78.82c0.65,0,1.16,0.53,1.16,1.16c0,0.65-0.53,1.16-1.16,1.16h-4.67c-0.65,0-1.16-0.53-1.16-1.16 c0-0.65,0.53-1.16,1.16-1.16H33.79L33.79,78.82z M37.1,71.9c0.45,0.45,0.45,1.19,0,1.64c-0.45,0.45-1.19,0.45-1.64,0l-3.29-3.3 c-0.45-0.45-0.45-1.19,0-1.64c0.45-0.45,1.19-0.45,1.64,0L37.1,71.9L37.1,71.9z M52.32,81.13c-0.65,0-1.16-0.53-1.16-1.16 c0-0.65,0.53-1.16,1.16-1.16h4.67c0.65,0,1.16,0.53,1.16,1.16c0,0.65-0.53,1.16-1.16,1.16H52.32L52.32,81.13z M50.66,73.28 c-0.45,0.45-1.19,0.45-1.64,0c-0.45-0.45-0.45-1.19,0-1.64l3.29-3.3c0.45-0.45,1.19-0.45,1.64,0c0.45,0.45,0.45,1.19,0,1.64 L50.66,73.28L50.66,73.28z M11.72,65.51h7.13c1.79,0,3.25,1.46,3.25,3.25v7.13c0,1.79-1.46,3.25-3.25,3.25h-7.13 c-1.79,0-3.25-1.46-3.25-3.25v-7.13C8.46,66.98,9.93,65.51,11.72,65.51L11.72,65.51z M52.73,45.12h7.13c1.79,0,3.25,1.46,3.25,3.25 v7.13c0,1.79-1.46,3.25-3.25,3.25h-7.13c-1.79,0-3.25-1.46-3.25-3.25v-7.13C49.48,46.58,50.95,45.12,52.73,45.12L52.73,45.12z M32.22,45.12h7.13c1.79,0,3.25,1.46,3.25,3.25v7.13c0,1.79-1.46,3.25-3.25,3.25h-7.13c-1.79,0-3.25-1.46-3.25-3.25v-7.13 C28.97,46.58,30.44,45.12,32.22,45.12L32.22,45.12z M11.72,45.12h7.13c1.79,0,3.25,1.46,3.25,3.25v7.13c0,1.79-1.46,3.25-3.25,3.25 h-7.13c-1.79,0-3.25-1.46-3.25-3.25v-7.13C8.46,46.58,9.93,45.12,11.72,45.12L11.72,45.12z M52.73,24.73h7.13 c1.79,0,3.25,1.46,3.25,3.25v7.13c0,1.79-1.46,3.25-3.25,3.25h-7.13c-1.79,0-3.25-1.46-3.25-3.25v-7.13 C49.48,26.19,50.95,24.73,52.73,24.73L52.73,24.73z M32.22,24.73h7.13c1.79,0,3.25,1.46,3.25,3.25v7.13c0,1.79-1.46,3.25-3.25,3.25 h-7.13c-1.79,0-3.25-1.46-3.25-3.25v-7.13C28.97,26.19,30.44,24.73,32.22,24.73L32.22,24.73z M11.72,24.73h7.13 c1.79,0,3.25,1.46,3.25,3.25v7.13c0,1.79-1.46,3.25-3.25,3.25h-7.13c-1.79,0-3.25-1.46-3.25-3.25v-7.13 C8.46,26.19,9.93,24.73,11.72,24.73L11.72,24.73z M35.77,107.24c2.88,0,5.24,2.32,5.24,5.24c0,2.88-2.32,5.24-5.24,5.24 c-2.88,0-5.24-2.32-5.24-5.24C30.54,109.6,32.86,107.24,35.77,107.24L35.77,107.24z"/></g></svg>